<?xml version="1.0" encoding="utf-8"?>
<!-- Generator: Adobe Illustrator 24.0.1, SVG Export Plug-In . SVG Version: 6.00 Build 0)  -->
<svg version="1.1" id="Layer_1" xmlns="http://www.w3.org/2000/svg" xmlns:xlink="http://www.w3.org/1999/xlink" x="0px" y="0px"
	 viewBox="0 0 3000 3000" style="enable-background:new 0 0 3000 3000;" xml:space="preserve">
<style type="text/css">
	.st0{fill:#FBD506;}
</style>
<g>
	<g>
		<path d="M2673.52,2001.72H326.48l-122.76,192.37c-113.99,178.63,14.31,412.69,226.21,412.69h2140.14
			c211.9,0,340.19-234.06,226.21-412.69L2673.52,2001.72z"/>
		<path class="st0" d="M2606.98,1897.45L1726.21,517.21c-105.5-165.32-346.92-165.32-452.41,0L393.02,1897.45l-66.54,104.27h2347.04
			L2606.98,1897.45z"/>
	</g>
	<g>
		<path class="st0" d="M927.21,2445.44h-50.1l-52.6-213.33l-52.19,213.33h-49.68l-70.97-288.06h54.69l43.42,203.31l42.17-203.31H860
			l44.25,203.31l40.91-203.31h50.93L927.21,2445.44z"/>
		<path class="st0" d="M1057.89,2389.5l-17.53,55.94h-57.61l102.28-288.06h44.67l102.7,288.06h-58.03l-17.53-55.94H1057.89z
			 M1107.15,2233.36L1072.5,2344h69.72L1107.15,2233.36z"/>
		<path class="st0" d="M1313.39,2328.55v116.89h-54.69v-288.06h109.38c28.11,0,50.52,7.72,67.21,23.17
			c16.7,15.45,25.05,36.39,25.05,62.83c0,18.93-4.38,34.93-13.15,48.01c-8.77,13.08-21.36,22.68-37.78,28.8l62.62,125.24h-63.04
			l-54.69-116.89H1313.39z M1365.16,2283.04c12.8,0,22.75-3.41,29.85-10.23c7.1-6.82,10.65-16.63,10.65-29.43
			c0-11.69-3.62-21.01-10.85-27.97c-7.24-6.96-17.12-10.44-29.64-10.44h-51.77v78.07H1365.16z"/>
		<path class="st0" d="M1720.44,2445.44h-54.69l-106.04-179.93v179.93h-54.69v-288.06h54.69l106.04,180.35v-180.35h54.69V2445.44z"
			/>
		<path class="st0" d="M1826.9,2157.38v288.06h-54.69v-288.06H1826.9z"/>
		<path class="st0" d="M2094.08,2445.44h-54.69l-106.04-179.93v179.93h-54.69v-288.06h54.69l106.04,180.35v-180.35h54.69V2445.44z"
			/>
		<path class="st0" d="M2139.59,2268.01c0-76.54,35.21-114.81,105.62-114.81c31.45,0,56.5,8.28,75.15,24.84
			c18.65,16.56,27.97,39.45,27.97,68.67v2.92h-54.69v-2.92c0-13.08-4.24-23.93-12.73-32.56c-8.49-8.63-20.53-12.94-36.11-12.94
			c-17.53,0-30.27,5.43-38.2,16.28c-7.93,10.85-11.9,28.67-11.9,53.44v62.2c0,23.66,4.24,40.7,12.73,51.14
			c8.49,10.44,21.64,15.66,39.45,15.66c16.7,0,28.88-4.31,36.53-12.94c7.65-8.63,11.48-21.71,11.48-39.25v-13.78h-50.93v-45.09
			h104.37v49.26c0,73.75-34.65,110.63-103.95,110.63c-69.86,0-104.79-38.27-104.79-114.81V2268.01z"/>
	</g>
	<g>
		<path d="M1535.9,1554.59h-75.39c-59.35,0-107.46,48.11-107.46,107.46v59.6c0,59.35,48.11,107.46,107.46,107.46h75.39
			c59.35,0,107.46-48.11,107.46-107.46v-59.6C1643.37,1602.7,1595.25,1554.59,1535.9,1554.59z"/>
		<path d="M1556.87,802.48h-113.73c-64.35,0-114.28,56.17-106.72,120.08l55.07,465.73c6.4,54.09,52.25,94.85,106.72,94.85
			c54.16,0,99.85-40.3,106.62-94.03l58.67-465.73C1671.57,859.2,1621.55,802.48,1556.87,802.48z"/>
	</g>
</g>
</svg>
